<svg width="1024" height="1024" viewBox="0 0 1024 1024" fill="none" xmlns="http://www.w3.org/2000/svg">
  <defs>
    <linearGradient id="iconBackground" x1="226" y1="137" x2="798" y2="887" gradientUnits="userSpaceOnUse">
      <stop stop-color="#FFFFFF"/>
      <stop offset="1" stop-color="#EEF6FF"/>
    </linearGradient>
    <linearGradient id="deviceBlue" x1="400" y1="286" x2="624" y2="738" gradientUnits="userSpaceOnUse">
      <stop stop-color="#126DFF"/>
      <stop offset="1" stop-color="#4AA3FF"/>
    </linearGradient>
    <filter id="cardShadow" x="103" y="68" width="818" height="908" filterUnits="userSpaceOnUse" color-interpolation-filters="sRGB">
      <feFlood flood-opacity="0" result="BackgroundImageFix"/>
      <feColorMatrix in="SourceAlpha" type="matrix" values="0 0 0 0 0 0 0 0 0 0 0 0 0 0 0 0 0 0 127 0" result="hardAlpha"/>
      <feOffset dy="34"/>
      <feGaussianBlur stdDeviation="48"/>
      <feComposite in2="hardAlpha" operator="out"/>
      <feColorMatrix type="matrix" values="0 0 0 0 0.108 0 0 0 0 0.278 0 0 0 0 0.565 0 0 0 0.2 0"/>
      <feBlend mode="normal" in2="BackgroundImageFix" result="effect1_dropShadow"/>
      <feBlend mode="normal" in="SourceGraphic" in2="effect1_dropShadow" result="shape"/>
    </filter>
    <filter id="innerGlow" x="249" y="171" width="526" height="602" filterUnits="userSpaceOnUse" color-interpolation-filters="sRGB">
      <feFlood flood-opacity="0" result="BackgroundImageFix"/>
      <feBlend mode="normal" in="SourceGraphic" in2="BackgroundImageFix" result="shape"/>
      <feColorMatrix in="SourceAlpha" type="matrix" values="0 0 0 0 0 0 0 0 0 0 0 0 0 0 0 0 0 0 127 0" result="hardAlpha"/>
      <feOffset dy="-2"/>
      <feGaussianBlur stdDeviation="18"/>
      <feComposite in2="hardAlpha" operator="arithmetic" k2="-1" k3="1"/>
      <feColorMatrix type="matrix" values="0 0 0 0 0.321 0 0 0 0 0.61 0 0 0 0 1 0 0 0 0.18 0"/>
      <feBlend mode="normal" in2="shape" result="effect1_innerShadow"/>
    </filter>
  </defs>

  <rect width="1024" height="1024" rx="228" fill="url(#iconBackground)" filter="url(#cardShadow)"/>
  <rect x="91" y="91" width="842" height="842" rx="183" stroke="#DCEBFF" stroke-opacity="0.62" stroke-width="2"/>

  <g filter="url(#innerGlow)">
    <rect x="390" y="266" width="244" height="492" rx="80" fill="url(#deviceBlue)"/>
    <rect x="439" y="326" width="146" height="296" rx="48" fill="#0E67ED" fill-opacity="0.36"/>
    <rect x="470" y="306" width="84" height="16" rx="8" fill="#DDEEFF" fill-opacity="0.7"/>
    <circle cx="512" cy="665" r="46" fill="#EAF5FF"/>
  </g>

  <path d="M335 350C294 390 269 447 269 511C269 576 294 635 336 676" stroke="#1677FF" stroke-width="46" stroke-linecap="round"/>
  <path d="M262 276C204 334 168 415 168 505C168 598 205 681 266 740" stroke="#3A91FF" stroke-width="42" stroke-linecap="round" opacity="0.82"/>
  <path d="M689 350C730 390 755 447 755 511C755 576 730 635 688 676" stroke="#1677FF" stroke-width="46" stroke-linecap="round"/>
  <path d="M762 276C820 334 856 415 856 505C856 598 819 681 758 740" stroke="#3A91FF" stroke-width="42" stroke-linecap="round" opacity="0.82"/>

  <circle cx="512" cy="512" r="25" fill="#FFFFFF" fill-opacity="0.92"/>
</svg>
